<svg viewBox="0 0 2164.6 2310.1" xmlns="http://www.w3.org/2000/svg" width="2343" height="2500"><path d="M186.2 369.6h1978.4v1940.5H195.8c-5.3 0-9.6-4.3-9.6-9.6z" fill="#78082a"/><path d="M345.4 1627.2L0 1838.8V210.1L345.4 0z" fill="#e85984"/><path d="M345.4 0h1651.9c5.5 0 9.9 4.4 9.9 9.9v1617.3H345.4z" fill="#e51050"/><g fill="#fff"><path d="M758 1261.5l310.5-900h219.7l304.6 900h-203l-59.4-191.4h-312.9l-58.8 191.4zm300.4-345.1h228l-96.2-318.2c-4-11.7-7-22.1-9.2-31.1s-4.1-20.4-5.6-34.2h-4.7c-2 12.1-4.1 23-6.2 32.6-2.2 9.6-4.9 19.7-8 30.1l-98 320.7h-.1zM967.7 2061.7c-6.8 14-15.8 26-27.1 35.9s-24.8 17.5-40.5 22.8-33 8-52 8-28.9-1.9-41.6-5.6-24.2-9.1-34.4-16.2c-9.3-6.5-17.6-14.4-24.9-23.7-7.3-9.2-13.4-19.5-18.4-30.6-4.8-11.2-8.5-23.4-11.1-36.8s-3.9-27.6-3.9-42.6V1926c0-14 1.2-27.4 3.5-40.1s5.8-24.4 10.5-35.3c5.3-13.2 12.3-25 21-35.4s18.5-19.1 29.5-26.3c9.8-6.1 20.6-10.7 32.4-14 11.7-3.3 24.4-4.9 37.9-4.9 20 0 37.8 2.7 53.4 8.1s28.9 13.2 39.9 23.2 19.7 22.3 26 36.8 10.3 30.9 12 49h-70c-.7-10.4-2.3-19.5-4.9-27.3s-6.3-14.4-11.1-19.6c-5-5.1-11.2-9-18.6-11.6s-16.3-3.9-26.6-3.9-10.6.6-15.4 1.7-9.1 2.8-13.1 5c-6.8 3.8-12.6 9.3-17.4 16.4s-8.5 15.4-11.4 24.8c-2.2 7.3-3.8 15.4-4.8 24.3s-1.5 18.4-1.5 28.6v47.4c0 13.9.8 26.3 2.4 37.2s4 20.5 7.4 28.6c2.3 5.6 5.1 10.5 8.4 14.8 3.2 4.3 7 7.9 11.1 10.8 4.5 3.2 9.5 5.5 15.1 7.1 5.6 1.5 11.8 2.3 18.6 2.3s17.4-1.1 24.8-3.3c7.3-2.2 13.6-5.7 18.8-10.5s9.3-10.9 12.3-18.4 4.8-16.5 5.5-27h70.3c-1.2 17.5-5.1 33.3-11.9 47.4zM1003.3 2123.4l114.4-343.1h80.9l112.2 343.1H1236l-21.9-73h-115.2l-21.6 73zm110.6-131.6h84l-35.4-121.3c-1.5-4.5-2.6-8.4-3.4-11.8s-1.5-7.8-2.1-13h-1.7c-.7 4.6-1.5 8.8-2.3 12.4-.8 3.7-1.8 7.5-2.9 11.5l-36.1 122.3zM1354.6 2123.4v-343.1h109.3c55.7 0 97.4 13.9 125.3 41.8s41.8 69.7 41.8 125.5-15.2 96.1-45.7 128-71 47.9-121.6 47.9h-109.1zm68.2-282v221.3h35.6c31.3 0 55.9-10.2 73.7-30.5s26.7-48.2 26.7-83.6-8.7-59.7-26.2-78.7-42.2-28.5-74.1-28.5z"/></g></svg>